<?xml version="1.0" encoding="UTF-8" standalone="no"?>
<svg
   xmlns:dc="http://purl.org/dc/elements/1.1/"
   xmlns:cc="http://creativecommons.org/ns#"
   xmlns:rdf="http://www.w3.org/1999/02/22-rdf-syntax-ns#"
   xmlns:svg="http://www.w3.org/2000/svg"
   xmlns="http://www.w3.org/2000/svg"
   id="svg919"
   version="1.1"
   viewBox="0 0 20.6375 23.812501"
   height="90"
   width="78">
  <defs
     id="defs913" />
  <metadata
     id="metadata916">
    <rdf:RDF>
      <cc:Work
         rdf:about="">
        <dc:format>image/svg+xml</dc:format>
        <dc:type
           rdf:resource="http://purl.org/dc/dcmitype/StillImage" />
        <dc:title></dc:title>
      </cc:Work>
    </rdf:RDF>
  </metadata>
  <g
     id="layer1">
    <g
       transform="translate(-154.29501,-182.99023)"
       id="g1507">
      <path
         d="m -0.92220775,101.27831 -12.47448825,3.34253 -9.131959,-9.131956 3.342529,-12.474488 12.4744881,-3.342529 9.1319591,9.131959 z"
         transform="matrix(0.89071172,-0.23712566,0.23707279,0.89091037,151.72373,110.41824)"
         style="opacity:1;fill:#ffffff;fill-opacity:1;fill-rule:nonzero;stroke:none;stroke-width:0.7;stroke-linecap:round;stroke-linejoin:round;stroke-miterlimit:4;stroke-dasharray:none;stroke-dashoffset:0;stroke-opacity:1;paint-order:markers stroke fill"
         id="path866" />
      <path
         d="m 163.37762,186.45331 c -0.42607,-0.017 -0.85874,0.12952 -1.19823,0.443 l -4.90222,4.52656 c -0.67896,0.62693 -0.72095,1.67813 -0.094,2.35709 0.62693,0.67897 1.67856,0.72096 2.35753,0.094 l 4.90222,-4.52658 c 0.67896,-0.62693 0.72095,-1.67812 0.094,-2.35709 -0.31346,-0.33948 -0.73324,-0.52004 -1.1593,-0.53701 z m -0.17536,1.00274 a 0.73701574,0.73701574 0 0 1 0.73686,0.73731 0.73701574,0.73701574 0 0 1 -0.73686,0.73686 0.73701574,0.73701574 0 0 1 -0.73687,-0.73686 0.73701574,0.73701574 0 0 1 0.73687,-0.73731 z m -4.86024,4.80033 a 0.47244603,0.47244603 0 0 1 0.004,0 0.47244603,0.47244603 0 0 1 0.47229,0.4723 0.47244603,0.47244603 0 0 1 -0.47229,0.47229 0.47244603,0.47244603 0 0 1 -0.4723,-0.47229 0.47244603,0.47244603 0 0 1 0.4688,-0.4723 z"
         style="opacity:1;fill:#c10000;fill-opacity:1;fill-rule:nonzero;stroke:none;stroke-width:0.61277;stroke-linecap:round;stroke-linejoin:round;stroke-miterlimit:4;stroke-dasharray:none;stroke-dashoffset:0;stroke-opacity:1;paint-order:markers stroke fill"
         id="rect876" />
      <g
         id="g896"
         transform="translate(162.941,76.446354)">
        <path
           d="m 88.12104,70.865372 c 1.508136,0 2.722267,1.214131 2.722267,2.722267 v 10.889067 c 0,1.508136 -1.214131,2.722267 -2.722267,2.722267 -1.508136,0 -2.722267,-1.214131 -2.722267,-2.722267 V 73.587639 c 0,-1.508136 1.214131,-2.722267 2.722267,-2.722267 z"
           transform="rotate(47.281749)"
           style="opacity:1;fill:#c10000;fill-opacity:1;fill-rule:nonzero;stroke:#ffffff;stroke-width:1;stroke-linecap:round;stroke-linejoin:round;stroke-miterlimit:4;stroke-dasharray:none;stroke-dashoffset:0;stroke-opacity:1;paint-order:markers stroke fill"
           id="rect870" />
        <g
           style="font-style:normal;font-variant:normal;font-weight:normal;font-stretch:normal;font-size:8.27976px;line-height:1.25;font-family:'Days One';-inkscape-font-specification:'Days One';letter-spacing:0px;word-spacing:0px;fill:#ffffff;fill-opacity:1;stroke:none;stroke-width:0.443558"
           id="text874"
           transform="rotate(49.114045)"
           aria-label="+">
          <path
             id="path1511"
             style="font-style:normal;font-variant:normal;font-weight:normal;font-stretch:normal;font-family:'Days One';-inkscape-font-specification:'Days One';fill:#ffffff;fill-opacity:1;stroke-width:0.443558"
             d="m 88.734147,73.333322 v -0.481099 q 0,-0.109157 0.06873,-0.177885 0.07277,-0.07277 0.177886,-0.07277 h 1.010713 v -1.00667 q 0,-0.109157 0.06873,-0.177885 0.07277,-0.07277 0.181929,-0.07277 h 0.477056 q 0.109157,0 0.177885,0.07277 0.07277,0.06873 0.07277,0.177885 v 1.00667 h 1.059227 q 0.109157,0 0.177885,0.07277 0.07277,0.06873 0.07277,0.177885 v 0.481099 q 0,0.109157 -0.07277,0.177886 -0.06873,0.06873 -0.177885,0.06873 h -1.059227 v 1.059228 q 0,0.109157 -0.07277,0.181928 -0.06873,0.06873 -0.177885,0.06873 h -0.477056 q -0.109157,0 -0.181929,-0.06873 -0.06873,-0.07277 -0.06873,-0.181928 v -1.059228 h -1.010713 q -0.109157,0 -0.177886,-0.06873 -0.06873,-0.06873 -0.06873,-0.177886 z" />
        </g>
      </g>
      <path
         d="m 167.80276,197.68234 c -1.00879,1.04122 -1.97158,2.1364 -2.20806,3.34346 -0.23648,1.20707 0.13587,2.43876 0.13587,2.43876 0,0 2.01017,-1.9694 3.57249,-3.47753 1.56232,-1.50813 2.32294,-2.23762 2.32294,-2.23762 1.40338,-1.17232 -0.0211,-3.33034 -1.68299,-2.07325 0,0 -1.13145,0.96496 -2.14025,2.00618 z m 3.52613,-1.52961 c 0.27284,0.2764 0.27,0.72163 -0.006,0.99452 -0.27617,0.2726 -0.72095,0.27003 -0.99394,-0.006 -0.27137,-0.27425 -0.27115,-0.71592 0.005,-0.9919 0.27632,-0.27598 0.72199,-0.27341 0.99511,0.003 z"
         style="fill:#c10000;fill-opacity:1;stroke:none;stroke-width:0.420875px;stroke-linecap:butt;stroke-linejoin:miter;stroke-opacity:1"
         id="path878" />
    </g>
  </g>
</svg>
